<svg xmlns="http://www.w3.org/2000/svg" viewBox="0 0 548 164" width="548" height="164">
	<defs>
		<clipPath clipPathUnits="userSpaceOnUse" id="cp1">
			<path d="M-569 -519L1115 -519L1115 672L-569 672Z" />
		</clipPath>
	</defs>
	<style>
		tspan { white-space:pre }
		.shp0 { fill: #2b2a29 } 
	</style>
	<g clip-path="url(#cp1)">
		<path fill-rule="evenodd" class="shp0" d="M524.55 84.55L539.16 84.55L539.16 147.17L524.55 147.17L524.55 84.55ZM494.09 148.06C474.68 148.06 460.96 134.16 460.96 115.81C460.96 97.56 474.68 83.66 494.09 83.66C502.55 83.66 509.95 86.33 515.65 90.88L508.97 102.63C504.78 98.71 500.24 97.02 494.72 97.02C483.05 97.02 475.74 105.3 475.74 115.81C475.74 126.41 483.05 134.7 494.72 134.7C500.59 134.7 505.14 132.74 508.97 129.09L515.65 140.84C509.95 145.39 502.55 148.06 494.09 148.06ZM446.17 147.17L422.93 123.21L422.93 147.17L408.32 147.17L408.32 84.55L422.93 84.55L422.93 112.34L445.64 84.55L463.99 84.55L436.11 117.51L465.15 147.17L446.17 147.17ZM396.74 134.07L396.74 147.17L352.21 147.17L352.21 84.55L396.29 84.55L396.29 97.73L366.81 97.73L366.81 109.27L392.91 109.27L392.91 122.45L366.81 122.45L366.81 134.07L396.74 134.07ZM344.01 97.73L323.61 97.73L323.61 147.17L309.01 147.17L309.01 97.73L288.61 97.73L288.61 84.55L344.01 84.55L344.01 97.73ZM265.81 84.55L280.41 84.55L280.41 147.17L265.81 147.17L265.81 84.55ZM251.2 84.55L251.2 147.17L236.59 147.17L236.59 122.45L209.16 122.45L209.16 147.17L194.55 147.17L194.55 84.55L209.16 84.55L209.16 109.27L236.59 109.27L236.59 84.55L251.2 84.55ZM130.96 115.81C130.96 97.56 144.67 83.66 164.09 83.66C172.55 83.66 179.95 86.33 185.65 90.88L178.97 102.63C174.78 98.71 170.24 97.02 164.71 97.02C153.05 97.02 145.74 105.3 145.74 115.81C145.74 126.41 153.05 134.7 164.71 134.7C170.59 134.7 175.14 132.74 178.97 129.09L185.65 140.84C179.95 145.39 172.55 148.06 164.09 148.06C144.67 148.06 130.96 134.16 130.96 115.81ZM99.34 130.33L91.86 130.33L91.86 147.17L77.25 147.17L77.25 84.55L102.1 84.55C116.44 84.55 126.24 94.17 126.24 107.44C126.24 116.7 121.52 124.01 114.03 127.66L128.82 147.17L111.99 147.17L99.34 130.33ZM91.86 117.15L100.76 117.15C106.73 117.15 111.01 113.14 111.01 107.35C111.01 101.83 106.82 97.73 100.76 97.73L91.86 97.73L91.86 117.15ZM51.06 137.46L27.01 137.46L22.65 147.17L6.71 147.17L37.7 83.66L40.37 83.66L71.37 147.17L55.43 147.17L51.06 137.46ZM45.9 125.88L39.04 110.56L32.18 125.88L45.9 125.88ZM175.67 59.19L151.62 59.19L147.26 68.9L131.32 68.9L162.31 5.39L164.98 5.39L195.98 68.9L180.04 68.9L175.67 59.19ZM170.5 47.61L163.65 32.29L156.79 47.61L170.5 47.61ZM64.6 37.64C64.6 19.47 78.59 5.39 97.82 5.39C117.06 5.39 131.05 19.47 131.05 37.64C131.05 56.07 116.71 69.79 97.82 69.79C78.94 69.79 64.6 56.07 64.6 37.64ZM116.26 37.55C116.26 27.04 108.78 18.75 97.82 18.75C86.87 18.75 79.39 27.04 79.39 37.55C79.39 48.32 87.14 56.43 97.82 56.43C108.51 56.43 116.26 48.32 116.26 37.55ZM58.9 55.72L58.9 68.9L6.62 68.9L6.62 64.89L35.03 19.47L6.71 19.47L6.71 6.28L57.83 6.28L57.83 10.29L29.42 55.72L58.9 55.72Z" />
	</g>
</svg>